<?xml version="1.0" encoding="UTF-8"?>
<svg id="Capa_1" data-name="Capa 1" xmlns="http://www.w3.org/2000/svg" viewBox="0 0 2248.35 417.27">
  <defs>
    <style>
      .cls-1 {
        fill: #cb9f00;
      }

      .cls-2 {
        fill: #fff9c3;
      }

      .cls-3 {
        fill: #ca9f01;
      }

      .cls-4 {
        fill: #fef8c4;
      }
    </style>
  </defs>
  <path class="cls-1" d="M914.64,338.25c-19.19-19.18-45.69-31.04-74.96-31.04h-233.33c-1.18,0-2.3-.52-3.07-1.41l-46.91-54.18c-2.28-2.63-.41-6.72,3.08-6.72h123.99c9.59,0,17.37-7.77,17.37-17.37v-49.58h-434.63v49.58c0,9.6,7.78,17.37,17.37,17.37h136.58c3.56,0,5.4,4.26,2.96,6.85l-51.01,54.18c-.76.81-1.84,1.28-2.95,1.28H106c-58.54,0-106,47.45-106,106,0,1.11.45,2.14,1.19,2.87.74.74,1.74,1.19,2.88,1.19h439.43c15.49,0,28.05-12.56,28.05-28.06l15.15-139.61c1.16-3.85,6.61-3.85,7.77,0l15.15,139.61c0,15.5,12.56,28.06,28.05,28.06h403.95c2.23,0,4.06-1.81,4.06-4.05,0-29.28-11.86-55.79-31.04-74.97ZM450.9,238.6c-9.9,0-17.93-10.61-17.93-23.7s8.03-23.7,17.93-23.7,17.94,10.61,17.94,23.7-8.03,23.7-17.94,23.7ZM532.87,238.6c-9.9,0-17.94-10.61-17.94-23.7s8.04-23.7,17.94-23.7,17.94,10.61,17.94,23.7-8.03,23.7-17.94,23.7Z"/>
  <g>
    <path class="cls-2" d="M409.94,24.71s33.01.36,66.71-5.34c28.18-4.78,62.73-12.19,73.29-14.49-18.77-4.35-32.09-7.39-72.63-1.95-39.94,5.37-67.36,21.79-67.36,21.79Z"/>
    <path class="cls-2" d="M538.6,28.08c17.5-2.91,31.87.65,35.55,1.7-3.9-10.69-9.01-18.67-15.68-20.14,0,0-16.19,6.18-75.29,17.92-59.1,11.74-80.5,5.84-80.5,5.84-1.27,1.36-2.11,2.62-2.51,3.73-.6,1.67-1.34,6.28-2.13,12.62.27-.08,6.05-1.85,27.1-5.38,21.55-3.62,12.99-.94,43.41-3.68,30.42-2.75,49.72-9.22,70.06-12.6Z"/>
    <path class="cls-2" d="M581.35,60.06c-.97-6.53-2.18-13.37-3.69-19.93-1.6,0-9.3.2-36.38,3.02-31.35,3.26-70.21,12.96-85.08,13.94-14.87.98-13.25-1.98-31.38-1.67-17.87.3-29.42,4.15-29.76,4.26-.7,6.7-1.41,13.96-2.08,21.11,2.05-.56,9.48-2.43,28.47-5.59,23.15-3.86,13.96-.94,46.66-3.75,32.69-2.82,53.4-9.87,75.26-13.48,18.4-3.03,33.63.81,37.98,2.11Z"/>
    <path class="cls-2" d="M271.97,91.74c25.74-15.01,77.16-9.2,117.09-.54.09-1.05.19-2.12.28-3.21,3.13-.94,14.61-4.07,31.12-4.24,19.5-.19,17.78,3.09,33.76,2.12,15.99-.97,57.71-11.47,91.4-14.85,21.11-2.12,31.27-2.78,35.92-2.99.07.66.13,1.32.19,1.95,15.59-4.32,129.22-32.63,136.52,57.04,1.24,15.27-1.71,26.46-7.57,34.47-7.92,12.22-24.49,23.15-56.68,27.95-23.26,3.47-131.37-30.38-202.64-53.95-2.3,1.93-4.31,4.12-6.56,5.88-47.04,36.81-131.74,32.52-148.66,29.41-20.49-3.76-104.8-32.04-24.17-79.04ZM552.59,150.61s82.6-7.42,82.33-26.14-42.64-20.44-42.64-20.44l3.1,4.57s18.08,1.02,17.1,15.05c-.97,14.03-91.54,12.92-91.54,12.92l31.65,14.04ZM492.49,123.86l45.09-8.96c45.1-8.96,52.86-12.23,52.86-12.23l-3.25-9.89s86.68,1.89,94.88,32.12c8.2,30.23-63.32,47.6-63.32,47.6l12.12,4.18s65.9.08,63.68-50.54c-2.22-50.62-107.26-39.31-107.26-39.31l-.1,5.95s-29.58,7.85-55.33,11.98c-25.74,4.13-71.02,7.19-71.02,7.19l31.65,11.91ZM320.15,163.29c41.47.33,120.46-33.16,120.46-33.16,0,0-82.59-39.92-120.74-36.15-40.31,3.97-53.96,14.2-54.76,35.45-.75,20.01,12.59,33.54,55.04,33.87Z"/>
    <path class="cls-2" d="M423.19,129.27s-64.27,26.07-97.8,26.33c-34.32.26-44.94-9.73-44.09-24.74.9-15.95,12.06-23.78,44.7-27.25,30.89-3.29,97.19,25.67,97.19,25.67Z"/>
  </g>
  <path class="cls-1" d="M2230.76,345.17c-10.87-10.87-25.89-17.59-42.47-17.59h-132.21c-.67,0-1.3-.29-1.74-.8l-26.58-30.7c-1.29-1.49-.23-3.81,1.75-3.81h70.26c5.43,0,9.84-4.4,9.84-9.84v-28.09h-246.27v28.09c0,5.44,4.41,9.84,9.84,9.84h77.39c2.02,0,3.06,2.41,1.68,3.88l-28.9,30.7c-.43.46-1.04.73-1.67.73h-149.1c-33.17,0-60.06,26.89-60.06,60.06,0,.63.25,1.21.67,1.63.42.42.99.67,1.63.67h248.99c8.78,0,15.89-7.12,15.89-15.9l8.58-79.11c.66-2.18,3.75-2.18,4.4,0l8.58,79.11c0,8.78,7.12,15.9,15.89,15.9h228.89c1.26,0,2.3-1.03,2.3-2.29,0-16.59-6.72-31.61-17.59-42.48ZM1967.99,288.7c-5.61,0-10.16-6.01-10.16-13.43s4.55-13.43,10.16-13.43,10.17,6.01,10.17,13.43-4.55,13.43-10.17,13.43ZM2014.44,288.7c-5.61,0-10.17-6.01-10.17-13.43s4.56-13.43,10.17-13.43,10.17,6.01,10.17,13.43-4.55,13.43-10.17,13.43Z"/>
  <g>
    <path class="cls-2" d="M1944.78,167.51s18.7.2,37.8-3.03c15.97-2.71,35.55-6.91,41.53-8.21-10.63-2.46-18.19-4.19-41.16-1.11-22.63,3.04-38.17,12.34-38.17,12.34Z"/>
    <path class="cls-2" d="M2017.68,169.42c9.92-1.65,18.06.37,20.15.96-2.21-6.06-5.1-10.58-8.89-11.41,0,0-9.17,3.5-42.66,10.15s-45.61,3.31-45.61,3.31c-.72.77-1.19,1.48-1.42,2.12-.34.95-.76,3.56-1.21,7.15.15-.05,3.43-1.05,15.35-3.05,12.21-2.05,7.36-.53,24.6-2.09,17.24-1.56,28.17-5.22,39.7-7.14Z"/>
    <path class="cls-2" d="M2041.91,187.54c-.55-3.7-1.23-7.57-2.09-11.29-.9,0-5.27.11-20.61,1.71-17.76,1.85-39.78,7.34-48.21,7.9-8.43.55-7.51-1.12-17.78-.94-10.12.17-16.67,2.35-16.86,2.41-.4,3.79-.8,7.91-1.18,11.96,1.16-.32,5.37-1.38,16.13-3.17,13.12-2.19,7.91-.53,26.44-2.13,18.52-1.6,30.26-5.59,42.64-7.64,10.43-1.72,19.05.46,21.52,1.19Z"/>
    <path class="cls-2" d="M1866.61,205.49c14.58-8.5,43.72-5.21,66.34-.3.05-.59.11-1.2.16-1.82,1.77-.54,8.28-2.31,17.64-2.4,11.05-.11,10.07,1.75,19.13,1.2,9.06-.55,32.7-6.5,51.79-8.42,11.96-1.2,17.72-1.58,20.35-1.69.04.38.07.75.11,1.11,8.83-2.45,73.22-18.49,77.35,32.32.7,8.65-.97,14.99-4.29,19.53-4.48,6.92-13.88,13.12-32.12,15.84-13.18,1.97-74.43-17.21-114.82-30.57-1.3,1.09-2.44,2.33-3.72,3.33-26.65,20.86-74.65,18.42-84.23,16.66-11.61-2.13-59.38-18.15-13.7-44.79ZM2025.61,238.85s46.8-4.2,46.65-14.81c-.15-10.61-24.16-11.58-24.16-11.58l1.76,2.59s10.24.58,9.69,8.53c-.55,7.95-51.87,7.32-51.87,7.32l17.93,7.95ZM1991.56,223.69l25.55-5.08c25.55-5.08,29.95-6.93,29.95-6.93l-1.84-5.61s49.11,1.07,53.76,18.2c4.65,17.13-35.88,26.97-35.88,26.97l6.87,2.37s37.34.05,36.08-28.64c-1.26-28.68-60.77-22.27-60.77-22.27l-.06,3.37s-16.76,4.45-31.35,6.79c-14.59,2.34-40.24,4.08-40.24,4.08l17.94,6.75ZM1893.9,246.03c23.5.19,68.26-18.79,68.26-18.79,0,0-46.8-22.62-68.42-20.49-22.84,2.25-30.57,8.05-31.03,20.09-.43,11.34,7.13,19,31.19,19.19Z"/>
    <path class="cls-2" d="M1952.29,226.76s-36.42,14.77-55.42,14.92c-19.45.15-25.47-5.51-24.98-14.02.51-9.04,6.83-13.47,25.33-15.44,17.5-1.86,55.07,14.54,55.07,14.54Z"/>
  </g>
  <rect class="cls-4" x="1241.38" y="134.13" width="30.86" height="257.46"/>
  <rect class="cls-3" x="1564.31" y="134.08" width="30.86" height="257.46"/>
  <polygon class="cls-4" points="1298.24 134.13 1298.24 258.74 1325.35 258.74 1325.35 178.6 1371.92 258.74 1411.77 258.74 1411.77 134.13 1384.49 134.13 1384.92 217.17 1337.77 134.13 1298.24 134.13"/>
  <polygon class="cls-3" points="1298.24 266.77 1298.24 391.38 1325.35 391.38 1325.35 311.24 1371.92 391.38 1411.77 391.38 1411.77 266.77 1384.49 266.77 1384.92 349.81 1337.77 266.77 1298.24 266.77"/>
  <path class="cls-4" d="M1498.06,135.51c-12-2.2-60.86-1-60.86-1v124.61s52.19,2.33,62.57-1,44-6.72,44-58.15-33.71-62.26-45.71-64.46ZM1492.92,234.03h-25.72v-73.43h25.86s21.57,2.57,21.57,39.96c0,30.11-21.71,33.47-21.71,33.47Z"/>
  <path class="cls-3" d="M1498.49,267.27c-12-2.2-60.86-1-60.86-1v124.61s52.19,2.33,62.57-1,44-6.72,44-58.15-33.71-62.26-45.71-64.46ZM1493.35,365.79h-25.72v-73.43h25.86s21.57,2.57,21.57,39.96c0,30.11-21.71,33.47-21.71,33.47Z"/>
  <path class="cls-4" d="M1746.51,261.26c-4.53-.91-22.95-.41-22.95-.41v51.57s19.68.97,23.6-.41,16.59-2.78,16.59-24.06-12.71-25.77-17.24-26.68ZM1744.57,302.03h-9.7v-30.39h9.75s8.13,1.06,8.13,16.54c0,12.46-8.19,13.85-8.19,13.85Z"/>
  <path class="cls-4" d="M1688.99,137.03h-29.57c-24.38,0-44.15,19.76-44.15,44.14v32.36c0,24.38,19.77,44.14,44.15,44.14h29.57c24.38,0,44.14-19.76,44.14-44.14v-32.36c0-24.38-19.76-44.14-44.14-44.14ZM1701.2,211.17c0,14.91-12.09,27-27,27s-27-12.09-27-27v-28.71c0-14.92,12.09-27,27-27,7.46,0,14.2,3.02,19.09,7.91,4.89,4.88,7.91,11.63,7.91,19.09v28.71Z"/>
  <path class="cls-4" d="M1793.77,134.03c-19.29-.15-44.57,7.71-46.7,33.57-2.35,28.62,35.84,44.71,35.84,44.71,0,0,18.69,4.3,16.09,13.37-2.39,8.34-8.52,9.51-13.38,9.48-11.58-.05-37.29-10.57-37.29-10.57v29.4s15.43,7.31,38.14,6.67,47.86-13.79,47.43-34.79-6.14-27.86-29.29-37.71-26.29-12.14-26.29-19,15.87-8.57,19.29-8.71c13.71-.56,21.86,6.71,21.86,6.71l16.86-20.14s-9.88-12.75-42.58-13Z"/>
  <path class="cls-4" d="M1804.06,262.81h-32.57s-.64,48.86,0,49.07,32.57,0,32.57,0v-7.71h-17.93l-.43-12.86,18.36-.21v-8.5l-18,.21-.11-11.91,18.11-.16v-7.93Z"/>
  <path class="cls-3" d="M1693.7,267.31h-72.29s-1.43,122.23,0,122.76,72.29,0,72.29,0v-19.3h-39.79l-.95-32.16,40.74-.54v-21.26l-39.95.54-.24-29.8,40.19-.4v-19.83Z"/>
  <polygon class="cls-4" points="1812.47 262.81 1812.47 311.98 1842.68 311.98 1843.68 303.85 1823.56 303.85 1823.4 262.81 1812.47 262.81"/>
</svg>