<?xml version="1.0" encoding="UTF-8"?>
<svg id="Capa_1" data-name="Capa 1" xmlns="http://www.w3.org/2000/svg" viewBox="0 0 945.68 417.27">
  <defs>
    <style>
      .cls-1 {
        fill: #211c00;
      }

      .cls-2 {
        fill: #27183d;
      }
    </style>
  </defs>
  <path class="cls-2" d="M914.64,338.25c-19.19-19.18-45.69-31.04-74.96-31.04h-233.33c-1.18,0-2.3-.52-3.07-1.41l-46.91-54.18c-2.28-2.63-.41-6.72,3.08-6.72h123.99c9.59,0,17.37-7.77,17.37-17.37v-49.58h-434.63v49.58c0,9.6,7.78,17.37,17.37,17.37h136.58c3.56,0,5.4,4.26,2.96,6.85l-51.01,54.18c-.76.81-1.84,1.28-2.95,1.28H106c-58.54,0-106,47.45-106,106,0,1.11.45,2.14,1.19,2.87.74.74,1.74,1.19,2.88,1.19h439.43c15.49,0,28.05-12.56,28.05-28.06l15.15-139.61c1.16-3.85,6.61-3.85,7.77,0l15.15,139.61c0,15.5,12.56,28.06,28.05,28.06h403.95c2.23,0,4.06-1.81,4.06-4.05,0-29.28-11.86-55.79-31.04-74.97ZM450.9,238.6c-9.9,0-17.93-10.61-17.93-23.7s8.03-23.7,17.93-23.7,17.94,10.61,17.94,23.7-8.03,23.7-17.94,23.7ZM532.87,238.6c-9.9,0-17.94-10.61-17.94-23.7s8.04-23.7,17.94-23.7,17.94,10.61,17.94,23.7-8.03,23.7-17.94,23.7Z"/>
  <g>
    <path class="cls-1" d="M409.94,24.71s33.01.36,66.71-5.34c28.18-4.78,62.73-12.19,73.29-14.49-18.77-4.35-32.09-7.39-72.63-1.95-39.94,5.37-67.36,21.79-67.36,21.79Z"/>
    <path class="cls-1" d="M538.6,28.08c17.5-2.91,31.87.65,35.55,1.7-3.9-10.69-9.01-18.67-15.68-20.14,0,0-16.19,6.18-75.29,17.92-59.1,11.74-80.5,5.84-80.5,5.84-1.27,1.36-2.11,2.62-2.51,3.73-.6,1.67-1.34,6.28-2.13,12.62.27-.08,6.05-1.85,27.1-5.38,21.55-3.62,12.99-.94,43.41-3.68,30.42-2.75,49.72-9.22,70.06-12.6Z"/>
    <path class="cls-1" d="M581.35,60.06c-.97-6.53-2.18-13.37-3.69-19.93-1.6,0-9.3.2-36.38,3.02-31.35,3.26-70.21,12.96-85.08,13.94-14.87.98-13.25-1.98-31.38-1.67-17.87.3-29.42,4.15-29.76,4.26-.7,6.7-1.41,13.96-2.08,21.11,2.05-.56,9.48-2.43,28.47-5.59,23.15-3.86,13.96-.94,46.66-3.75,32.69-2.82,53.4-9.87,75.26-13.48,18.4-3.03,33.63.81,37.98,2.11Z"/>
    <path class="cls-1" d="M271.97,91.74c25.74-15.01,77.16-9.2,117.09-.54.09-1.05.19-2.12.28-3.21,3.13-.94,14.61-4.07,31.12-4.24,19.5-.19,17.78,3.09,33.76,2.12,15.99-.97,57.71-11.47,91.4-14.85,21.11-2.12,31.27-2.78,35.92-2.99.07.66.13,1.32.19,1.95,15.59-4.32,129.22-32.63,136.52,57.04,1.24,15.27-1.71,26.46-7.57,34.47-7.92,12.22-24.49,23.15-56.68,27.95-23.26,3.47-131.37-30.38-202.64-53.95-2.3,1.93-4.31,4.12-6.56,5.88-47.04,36.81-131.74,32.52-148.66,29.41-20.49-3.76-104.8-32.04-24.17-79.04ZM552.59,150.61s82.6-7.42,82.33-26.14-42.64-20.44-42.64-20.44l3.1,4.57s18.08,1.02,17.1,15.05c-.97,14.03-91.54,12.92-91.54,12.92l31.65,14.04ZM492.49,123.86l45.09-8.96c45.1-8.96,52.86-12.23,52.86-12.23l-3.25-9.89s86.68,1.89,94.88,32.12c8.2,30.23-63.32,47.6-63.32,47.6l12.12,4.18s65.9.08,63.68-50.54c-2.22-50.62-107.26-39.31-107.26-39.31l-.1,5.95s-29.58,7.85-55.33,11.98c-25.74,4.13-71.02,7.19-71.02,7.19l31.65,11.91ZM320.15,163.29c41.47.33,120.46-33.16,120.46-33.16,0,0-82.59-39.92-120.74-36.15-40.31,3.97-53.96,14.2-54.76,35.45-.75,20.01,12.59,33.54,55.04,33.87Z"/>
    <path class="cls-1" d="M423.19,129.27s-64.27,26.07-97.8,26.33c-34.32.26-44.94-9.73-44.09-24.74.9-15.95,12.06-23.78,44.7-27.25,30.89-3.29,97.19,25.67,97.19,25.67Z"/>
  </g>
</svg>