<?xml version="1.0" encoding="UTF-8"?>
<svg id="Capa_1" data-name="Capa 1" xmlns="http://www.w3.org/2000/svg" viewBox="0 0 1007 268.79">
  <defs>
    <style>
      .cls-1 {
        fill: #fff9c3;
      }

      .cls-2 {
        fill: #4f7942;
      }
    </style>
  </defs>
  <path class="cls-2" d="M989.4,211.2c-10.9-10.9-25.9-17.6-42.5-17.6h-132.2c-.7,0-1.3-.3-1.7-.8l-26.6-30.7c-1.3-1.5-.2-3.8,1.8-3.8h70.3c5.4,0,9.8-4.4,9.8-9.8v-28.1h-246.3v28.1c0,5.4,4.4,9.8,9.8,9.8h77.4c2,0,3.1,2.4,1.7,3.9l-28.9,30.7c-.4.5-1,.7-1.7.7h-149.1c-33.2,0-60.1,26.9-60.1,60.1s.2,1.2.7,1.6,1,.7,1.6.7h249c8.8,0,15.9-7.1,15.9-15.9l8.6-79.1c.7-2.2,3.8-2.2,4.4,0l8.6,79.1c0,8.8,7.1,15.9,15.9,15.9h228.9c1.3,0,2.3-1,2.3-2.3,0-16.6-6.7-31.6-17.6-42.5h0ZM726.6,154.7c-5.6,0-10.2-6-10.2-13.4s4.6-13.4,10.2-13.4,10.2,6,10.2,13.4-4.6,13.4-10.2,13.4ZM773,154.7c-5.6,0-10.2-6-10.2-13.4s4.6-13.4,10.2-13.4,10.2,6,10.2,13.4-4.6,13.4-10.2,13.4Z"/>
  <g>
    <path class="cls-1" d="M703.4,33.5s18.7.2,37.8-3c16-2.7,35.6-6.9,41.5-8.2-10.6-2.5-18.2-4.2-41.2-1.1-22.6,3-38.2,12.3-38.2,12.3h.1Z"/>
    <path class="cls-1" d="M776.3,35.4c9.9-1.6,18.1.4,20.2,1-2.2-6.1-5.1-10.6-8.9-11.4,0,0-9.2,3.5-42.7,10.1s-45.6,3.3-45.6,3.3c-.7.8-1.2,1.5-1.4,2.1-.3.9-.8,3.6-1.2,7.1.2,0,3.4-1.1,15.3-3.1,12.2-2.1,7.4-.5,24.6-2.1s28.2-5.2,39.7-7.1h0v.1Z"/>
    <path class="cls-1" d="M800.5,53.5c-.6-3.7-1.2-7.6-2.1-11.3-.9,0-5.3.1-20.6,1.7-17.8,1.9-39.8,7.3-48.2,7.9-8.4.6-7.5-1.1-17.8-.9-10.1.2-16.7,2.4-16.9,2.4-.4,3.8-.8,7.9-1.2,12,1.2-.3,5.4-1.4,16.1-3.2,13.1-2.2,7.9-.5,26.4-2.1s30.3-5.6,42.6-7.6c10.4-1.7,19.1.5,21.5,1.2h0l.2-.1Z"/>
    <path class="cls-1" d="M625.2,71.5c14.6-8.5,43.7-5.2,66.3-.3,0-.6.1-1.2.2-1.8,1.8-.5,8.3-2.3,17.6-2.4,11.1-.1,10.1,1.8,19.1,1.2s32.7-6.5,51.8-8.4c12-1.2,17.7-1.6,20.3-1.7,0,.4,0,.8.1,1.1,8.8-2.4,73.2-18.5,77.3,32.3.7,8.6-1,15-4.3,19.5-4.5,6.9-13.9,13.1-32.1,15.8-13.2,2-74.4-17.2-114.8-30.6-1.3,1.1-2.4,2.3-3.7,3.3-26.7,20.9-74.7,18.4-84.2,16.7-11.6-2.1-59.4-18.1-13.7-44.8h0l.1.1ZM784.2,104.9s46.8-4.2,46.7-14.8-24.2-11.6-24.2-11.6l1.8,2.6s10.2.6,9.7,8.5-51.9,7.3-51.9,7.3l17.9,7.9h0v.1ZM750.2,89.7l25.6-5.1c25.6-5.1,29.9-6.9,29.9-6.9l-1.8-5.6s49.1,1.1,53.8,18.2c4.6,17.1-35.9,27-35.9,27l6.9,2.4s37.3,0,36.1-28.6c-1.3-28.7-60.8-22.3-60.8-22.3v3.4s-16.8,4.4-31.4,6.8-40.2,4.1-40.2,4.1l17.9,6.8h0l-.1-.2ZM652.5,112c23.5.2,68.3-18.8,68.3-18.8,0,0-46.8-22.6-68.4-20.5-22.8,2.2-30.6,8.1-31,20.1-.4,11.3,7.1,19,31.2,19.2h-.1Z"/>
    <path class="cls-1" d="M710.9,92.8s-36.4,14.8-55.4,14.9c-19.4.1-25.5-5.5-25-14,.5-9,6.8-13.5,25.3-15.4,17.5-1.9,55.1,14.5,55.1,14.5h0Z"/>
  </g>
  <rect class="cls-1" y=".1" width="30.9" height="257.5"/>
  <rect class="cls-2" x="322.9" y=".1" width="30.9" height="257.5"/>
  <polygon class="cls-1" points="56.8 .1 56.8 124.7 83.9 124.7 83.9 44.6 130.5 124.7 170.4 124.7 170.4 .1 143.1 .1 143.5 83.2 96.4 .1 56.8 .1"/>
  <polygon class="cls-2" points="56.8 132.8 56.8 257.4 83.9 257.4 83.9 177.2 130.5 257.4 170.4 257.4 170.4 132.8 143.1 132.8 143.5 215.8 96.4 132.8 56.8 132.8"/>
  <path class="cls-1" d="M256.7,1.5c-12-2.2-60.9-1-60.9-1v124.6s52.2,2.3,62.6-1,44-6.7,44-58.1S268.7,3.7,256.7,1.5h0ZM251.5,100h-25.7V26.6h25.9s21.6,2.6,21.6,40-21.7,33.5-21.7,33.5l-.1-.1Z"/>
  <path class="cls-2" d="M257.1,133.3c-12-2.2-60.9-1-60.9-1v124.6s52.2,2.3,62.6-1,44-6.7,44-58.1-33.7-62.3-45.7-64.5h0ZM251.9,231.8h-25.7v-73.4h25.9s21.6,2.6,21.6,40-21.7,33.5-21.7,33.5l-.1-.1Z"/>
  <path class="cls-1" d="M505.1,127.3c-4.5-.9-22.9-.4-22.9-.4v51.6s19.7,1,23.6-.4,16.6-2.8,16.6-24.1-12.7-25.8-17.2-26.7h-.1ZM503.2,168h-9.7v-30.4h9.8s8.1,1.1,8.1,16.5-8.2,13.9-8.2,13.9h0Z"/>
  <path class="cls-1" d="M447.6,3h-29.6c-24.4,0-44.2,19.8-44.2,44.1v32.4c0,24.4,19.8,44.1,44.2,44.1h29.6c24.4,0,44.1-19.8,44.1-44.1v-32.4c0-24.4-19.8-44.1-44.1-44.1h0ZM459.8,77.2c0,14.9-12.1,27-27,27s-27-12.1-27-27v-28.7c0-14.9,12.1-27,27-27s14.2,3,19.1,7.9,7.9,11.6,7.9,19.1v28.7h0Z"/>
  <path class="cls-1" d="M552.4,0c-19.3-.1-44.6,7.7-46.7,33.6-2.3,28.6,35.8,44.7,35.8,44.7,0,0,18.7,4.3,16.1,13.4-2.4,8.3-8.5,9.5-13.4,9.5-11.6,0-37.3-10.6-37.3-10.6v29.4s15.4,7.3,38.1,6.7,47.9-13.8,47.4-34.8-6.1-27.9-29.3-37.7-26.3-12.1-26.3-19,15.9-8.6,19.3-8.7c13.7-.6,21.9,6.7,21.9,6.7l16.9-20.1S585,.3,552.3.1h0l.1-.1Z"/>
  <path class="cls-1" d="M562.7,128.8h-32.6s-.6,48.9,0,49.1,32.6,0,32.6,0v-7.7h-17.9l-.4-12.9,18.4-.2v-8.5l-18,.2v-11.9c-.1,0,18-.2,18-.2v-7.9h-.1Z"/>
  <path class="cls-2" d="M452.3,133.3h-72.3s-1.4,122.2,0,122.8,72.3,0,72.3,0v-19.3h-39.8l-.9-32.2,40.7-.5v-21.3l-39.9.5-.2-29.8,40.2-.4v-19.8h-.1Z"/>
  <polygon class="cls-1" points="571.1 128.8 571.1 178 601.3 178 602.3 169.9 582.2 169.9 582 128.8 571.1 128.8"/>
</svg>