<?xml version="1.0" encoding="UTF-8"?>
<svg id="Capa_1" data-name="Capa 1" xmlns="http://www.w3.org/2000/svg" viewBox="0 0 1019.31 562.36">
  <defs>
    <style>
      .cls-1 {
        letter-spacing: -.01em;
      }

      .cls-2, .cls-3 {
        fill: #fff;
      }

      .cls-3 {
        font-family: BebasNeueBold, 'Bebas Neue';
        font-size: 118.8px;
      }

      .cls-4 {
        fill: #1d1e1d;
      }

      .cls-5 {
        letter-spacing: -.06em;
      }
    </style>
  </defs>
  <path d="M415.8,12.32c-.73,5.37-22.42,24.52-25.83,21.25,3.4-10.99,12.9-26.62,25.83-21.25Z"/>
  <path d="M225.13,440.96c-7.17.53-19.58-1.54-25.59.25-3.44,1.02-7.37,8.17-11.13,10.15-1.68.88-12.18,3.66-12.73,3.21,19.74-25.28,3.53-22.9-14.14-33.72-45.32-27.75-17.86-64.97,21.4-78.31,34.92-11.87,99.61-15.25,116.62,25.41,17.84,42.66-39.98,70.46-74.42,73.02Z"/>
  <path d="M410.56,393.85c1.97-3.1,8.01-6.77,9.11-9.27,1.05-2.39-.7-4.84-.04-6.06,4.18-7.66,19.49-3.9,9.85,9.95-2.93,4.21-15.76,11.59-5.66,16.39,7.35,3.49,14.11-5.48,14.76-4.98l.82,10.65c-11.47,11.93-39.23-.3-28.84-16.67Z"/>
  <rect x="420.36" y="361.86" width="10.65" height="9.14"/>
  <polygon points="479.79 413.39 475.63 403.11 460.81 402.81 456.9 412.84 444.68 413.53 462.14 363.36 474.87 362.08 493.31 413.53 479.79 413.39"/>
  <rect x="496.36" y="355.79" width="12.16" height="57.75"/>
  <path d="M536.63,442.51c-3.29,0-11.15.14-12.92-3.14h25.84c-1.76,3.28-9.63,3.14-12.92,3.14Z"/>
  <path d="M528.27,404.43v4.52c15.42.92,37.2,8.63,25.09,27.39h-34.96c-3.96-3.41-5-10.88-3.49-15.66.75-2.36,4.01-3.3,4.15-6.26.35-7.37-.48-14.64-1.34-21.48-1.11-8.75,1.39-17.11,10.5-19.74,9.59-2.77,17.77,3.18,26.62-5.27l3.5,9.72-5.62,4.13c6.08,16.87-9.25,25.43-24.46,22.64Z"/>
  <path d="M573.82,412.83c-19.17-5.01-16.5-36.03,1.12-40,10.19-2.29,24.13.42,27.08,11.79,5.17,19.92-8.26,33.42-28.21,28.21Z"/>
  <path d="M648.33,413.53l.02,15.21h-10.65v-54.72c12.34,1.24,29.03-7.51,36.13,7.19,8.58,17.76-5.79,37.34-25.5,32.32Z"/>
  <path d="M721.13,408c-1.13,7.29-9.88,4.12-12.75,4.32-8.08.57-14.91,4.03-22.1-2.52-14.11-12.85,8.66-25.82,21.34-22.12-2.15-7-5.99-6.8-12.57-5.71-4.49.74-8.73,5.77-10.24-1.18-2.28-10.49,21.52-10.42,28.15-5.28,8.65,6.71,4.12,17.35,5.35,26.56.3,2.28,3.08,4.22,2.82,5.93Z"/>
  <path d="M743.36,374.05c-1.46,2.94-8.2,4.62-11.41,4.53l1.67-19.59,10.47-1.68-.73,16.74Z"/>
  <path d="M821.4,408.07c-1.4,5.6-21.48,6.11-26.31,5.37-25.95-4.01-15.43-49.28,12.83-40.92l-.02-16.73h10.65v44.84c0,1.29,3.44,5.03,2.84,7.45Z"/>
  <path d="M866.44,395.3h-26.6c1.88,12.84,16.89,9.35,25.83,6.09,4.64,17.2-23.92,14.52-31.98,6.91-16.79-15.86.28-42.5,24.47-35.11,6.94,2.12,14.67,16.41,8.28,22.12Z"/>
  <path d="M899.91,413.56c-41.72,4.9-31.52-54.8,8.15-39.38.66,2.5.63,9.94-2.14,10.48-23.93-14.81-28.55,24.41-6.38,19.46,3.57-.8,5.05-4.44,8.69-4.26.43,8.57,1.28,12.57-8.32,13.69Z"/>
  <rect x="914.32" y="372.51" width="12.16" height="41.04"/>
  <path d="M924.22,367.67l-9.9-5.84,7.06-8.84c2.86-.54,7.74,4.2,9.37,6.58l-6.53,8.1Z"/>
  <path d="M958.38,383.14c-2.95-1.95-12.15-1.66-12.15,2.29v28.12h-10.64v-41.04h22.8s-.02,10.63-.02,10.63Z"/>
  <rect x="969.02" y="404.41" width="12.17" height="9.14"/>
  <path d="M981.32,390.24c-1.58,2.92-.29,5.81-1.51,7.4-6.35,8.26-17.73-.36-7.77-12.24,2.78-3.32,10.63-6.2,9.01-11.89-1.59-5.57-16.45-5.71-16.61,2.02l-2.98-.91-1.33-8.68c2.03-8.61,29.15-8.45,31.66,4.31,2.52,12.82-6.33,12.34-10.47,19.98Z"/>
  <g>
    <path class="cls-4" d="M532.39,230.41c-.82-7.08,2.26-17.9-3.23-21.84l-1.55,13.69-50.13-1.55,17.28-1.69,10.07-2.85h-28.12c-7,0-38.83-12.21-45.89-16.43-4.28-2.56-13.05-8.82-11.11-13.97-16.91,11.55-39.73,11.96-56.6.02-2.35-1.66-24.01-24.11-24.63-25.78-1-2.73-7.58-15.5-9.37-21.1-1.17-3.66-2.07-5.16-2.99-8.69-2.09-8.03-22.18-8.77-24.09-16.49-.38-1.55-1.35-13.33-2.28-15.6-1.01-2.47,3.02-8.84,3.02-8.84l9.05-8.38,6.05,1.52,1.78-13.46c6.32-2.64,13.1-6.85,18.07-11.56,2.19-2.08,10.35-11.53,11.9-13.95,1.24-1.94,1.49-6.14,1.87-6.47,1.51-1.34,29.44,2.2,30.28-13.06.28-5.09-8.86,2.66-13.33,3.41-6.49,1.1-13.58,0-20.15.35,2.62-3.38,12.52-9.82,16.3-10.34,5.12-.69,9.28,3.93,14.09,4.27,4.5-4.87-15.41-12.99-19.08-13.58-12.8-2.07-28.37,2.39-35.63,13.57,3.97.2,5.46-3.99,8.58-5.84,6.97-4.1,22.47-5.28,29.38-.98,0,1.15-18.18,12.49-19.32,12.69-4.62.82-13.64-2.14-20.79-1.16-9.15,1.27-18.18,8.66-19.11,18.1,3.14-1.61,3.95-5.25,6.8-7.62,4.36-3.62,26.98-10.55,25.07-2.3-4.05,4.56-8.02,9.41-11.28,14.58-1.91,3.04-2.94,8.91-4.63,10.56-5.9,5.75-35.27,2.71-31.16,22.77,3.72-2.92,4.1-7.24,8.56-10.41,5.5-3.91,12.68-4.08,18.77-6.3v12.15c-23.86-3.34-27.07,33.67-9.64,43.86,4.8,2.8,14.96,2.93,16.52,4.76,1.34,1.56,3.55,11.37,5.01,14.74,2.66,6.15,6.1,13.6,9.69,19.19,6.46,10.04,16.04,16.43,22.6,26.15l-.79,2.28c-27.71,19.98-44.02,46.9-51.18,80.34l42.72.07c-.78-2.09,1.56-4.43,1.56-5.2,0-8.47.47-17.45,0-25.83-.09-1.52-4.34-8.68-.02-9.88l6.12,40.25h-.1c.21.21.4.43.57.67l87.76.15s.03-.04.05-.05h-.14c-.6-.63-1.14-14.81-1.62-17.37-1.63-8.54-5.33-22.81-7.97-31.55-1.35-4.44-5.9-8.29-5.61-13.38,15.88,15.87,17.21,41.39,22.78,62.3h-.57s.04.04.06.07h2.89c-.4-3.24-6.14-20.99-1.63-21.3,7.45,4.43,16.75,7.6,25.09,9.84,5.68,1.52,20.07,5.32,25.07,5.32h30.4c.55,0,2.44-1.58,3.59-1.74,1.2-2-5.06-25.81-5.67-31.13Z"/>
    <path class="cls-4" d="M385.9,2.25c4.76,4.6,5.59,13.27,3.43,19.36l11.58-10.37c11.01-8.31,20.55-12.54,34.76-10.9,3.47.4,10.3,1.14,9.86,6.07-4.38-2.9-9.23-3.76-14.44-3.05-7.48,1.02,1.38,3.86,2.77,4.8,9.28,6.27,17.42,14.18,28.4,17.24-2.44,3.26-4.01,2.27-7.16,1.13-11.57-4.19-18.68-18.29-34.63-18.59-9.99-.19-7.32,4.5-8.59,5.74-.89.86-4.1.09-5.75,1.13-1.41.88-10.5,8.57-10.62,9.26,5.09,8.48,13.83,25.1-.1,29.44,2.3-13.76.16-23.57-12.16-31.17l.28-2.02c4.33-.22,2.59-4.33,2.76-7.84h-7.6s7.55-3.79,7.55-3.79c-3.25-7.21-9.81-7.58-16.68-5.34,1.6-4.91,13.83-3.54,16.34-1.12Z"/>
    <path class="cls-4" d="M410.59,150.82c-3.9,27.08-35.03,26.39-42.58.76-.72-5.08,11.46,1.36,14.87,1.87,10.07,1.5,18.16-.15,27.71-2.64Z"/>
    <path class="cls-4" d="M454.68,52.03l.02,6.05c-2.55-14.2-16.57-23.99-28.93-29.59l-21.23-6.09c12.6-10.07,25.87,1.5,36.33,9.22,12.82,9.47,18.7,17.78,34.66,24.62,1.02.44,17.08,4.03,8.6,6.25-10.75,2.81-26.58-12.52-29.45-10.46Z"/>
    <path class="cls-4" d="M352.27,90.18c1.79-.62,5.12-.53,6.72.54,5.95,3.93,4.38,44.88-8.57,34.4-3.94-3.19-3.07-33.22,1.85-34.93Z"/>
    <path class="cls-4" d="M421.38,126.34c-3.37-7.81-3.97-16.28-3.02-24.75.66-5.89,1.5-13.13,8.16-11.59,10.27,2.37,5.85,44.04-5.14,36.34Z"/>
    <path class="cls-4" d="M406.29,120.83c.74,3.07-.76,6.91-.76,6.91,0,0-1.25,2.91-5.39,4.01-1.53.41-16.32,1.42-16.91.81v-4.54c5.37-.96,10.7,2.95,15.23-.73,7.79-8.96-9.03-29.14-9.12-38.8,6.69,6.55,10.03,15.43,13.3,23.83l3.65,8.51Z"/>
    <path class="cls-4" d="M343.73,77.85c.31-10.06,15.15-15.59,21.24-6.83l-21.24,6.83Z"/>
    <path class="cls-4" d="M470.95,92c5.84,4.82,4.83,19.56-3.33,22.33l2.2-14.34-6.02-9.95c2.48-.17,5.2.35,7.16,1.97Z"/>
    <path class="cls-4" d="M434.9,77.86c-5.23-5.58-10.91-6.31-18.22-6.83,5.75-7.16,19.85-2.8,18.22,6.83Z"/>
  </g>
  <path class="cls-2" d="M175.67,454.56c19.74-25.28,3.53-22.9-14.14-33.72-45.32-27.75-17.86-64.97,21.4-78.31,34.92-11.87,99.61-15.25,116.62,25.41,17.84,42.66-39.98,70.46-74.42,73.02-7.17.53-19.58-1.54-25.59.25-3.44,1.02-7.37,8.17-11.13,10.15-1.68.88-12.18,3.66-12.73,3.21Z"/>
  <path class="cls-2" d="M518.4,436.34c-3.96-3.41-5-10.88-3.49-15.66.75-2.36,4.01-3.3,4.15-6.26.35-7.37-.48-14.64-1.34-21.48-1.11-8.75,1.39-17.11,10.5-19.74,9.59-2.77,17.77,3.18,26.62-5.27l3.5,9.72-5.62,4.13c6.08,16.87-9.25,25.43-24.46,22.64v4.52c15.42.92,37.2,8.63,25.09,27.39h-34.96ZM541.58,383.52c-9.72-9.58-21.43,10.5-6.35,11.73,7.28.6,10.71-7.43,6.35-11.73ZM544.73,422.9c-27.76-14.89-23.73,18.51-.49,7.38l.49-7.38Z"/>
  <path class="cls-2" d="M474.87,362.08l18.45,51.45-13.52-.14-4.16-10.28-14.82-.3-3.91,10.03-12.22.68,17.45-50.16,12.73-1.28ZM473.56,393.77l-6.06-15.18-3.05,15.18h9.11Z"/>
  <path class="cls-2" d="M818.57,355.79v44.84c0,1.29,3.44,5.03,2.84,7.45-1.4,5.6-21.48,6.11-26.31,5.37-25.95-4.01-15.43-49.28,12.83-40.92l-.02-16.73h10.65ZM807.93,381.63c-22.75-2.37-22.75,25.17,0,22.8v-22.8Z"/>
  <path class="cls-2" d="M637.7,374.03c12.34,1.24,29.03-7.51,36.13,7.19,8.58,17.76-5.79,37.34-25.5,32.32l.02,15.21h-10.65v-54.72ZM661.63,402.5c5.5-5.18,4.49-20.29-5.05-20.84-11.75-.67-7.96,13.16-8.03,21.02,3.56,1.9,9.96,2.75,13.08-.18Z"/>
  <path class="cls-2" d="M839.84,395.3c1.88,12.84,16.89,9.35,25.83,6.09,4.64,17.2-23.92,14.52-31.98,6.91-16.79-15.86.28-42.5,24.47-35.11,6.94,2.12,14.67,16.41,8.28,22.12h-26.6ZM856.55,387.7c-.14-7.75-14.19-7.5-16.7-2.25-.64,3.44,1.5,2.1,3.76,2.26,4.27.31,8.67-.21,12.93,0Z"/>
  <path class="cls-2" d="M707.62,387.69c-2.15-7-5.99-6.8-12.57-5.71-4.49.74-8.73,5.77-10.24-1.18-2.28-10.49,21.52-10.42,28.15-5.28,8.65,6.71,4.12,17.35,5.35,26.56.3,2.28,3.08,4.22,2.82,5.93-1.13,7.29-9.88,4.12-12.75,4.32-8.08.57-14.91,4.03-22.1-2.52-14.11-12.85,8.66-25.82,21.34-22.12ZM707.62,395.31c-15.92-1.59-20.23,12.22-1.42,8.45l1.42-8.45Z"/>
  <path class="cls-2" d="M574.95,372.83c10.19-2.29,24.13.42,27.08,11.79,5.17,19.92-8.26,33.42-28.21,28.21-19.17-5.01-16.5-36.03,1.12-40ZM588.68,402.5c9.93-9.32-3.13-28.95-14.14-17.92-8.96,8.99,4.3,27.15,14.14,17.92Z"/>
  <path class="cls-2" d="M908.06,374.19c.66,2.5.63,9.94-2.14,10.48-23.93-14.81-28.55,24.41-6.38,19.46,3.57-.8,5.05-4.44,8.69-4.26.43,8.57,1.28,12.57-8.32,13.69-41.72,4.9-31.52-54.8,8.15-39.38Z"/>
  <rect class="cls-2" x="496.36" y="355.79" width="12.16" height="57.75"/>
  <path class="cls-2" d="M438.58,399.87l.82,10.65c-11.47,11.93-39.23-.3-28.84-16.67,1.97-3.1,8.01-6.77,9.11-9.27s-.7-4.84-.04-6.06c4.18-7.66,19.49-3.9,9.85,9.95-2.93,4.21-15.76,11.59-5.66,16.39,7.35,3.49,14.11-5.48,14.76-4.98Z"/>
  <path class="cls-2" d="M964.44,375.53l-2.98-.91-1.33-8.68c2.03-8.61,29.15-8.45,31.66,4.31,2.52,12.82-6.33,12.34-10.47,19.98-1.58,2.92-.29,5.81-1.51,7.4-6.35,8.26-17.73-.36-7.77-12.24,2.78-3.32,10.63-6.2,9.01-11.89s-16.45-5.71-16.61,2.02Z"/>
  <path class="cls-2" d="M935.59,372.51h22.8s-.02,10.63-.02,10.63c-2.95-1.95-12.15-1.66-12.15,2.29v28.12h-10.64v-41.04Z"/>
  <rect class="cls-2" x="914.32" y="372.51" width="12.16" height="41.04"/>
  <path class="cls-2" d="M415.8,12.32c-.73,5.37-22.42,24.52-25.83,21.25,3.4-10.99,12.9-26.62,25.83-21.25Z"/>
  <path class="cls-2" d="M744.09,357.31l-.73,16.74c-1.46,2.94-8.2,4.62-11.41,4.53l1.67-19.59,10.47-1.68Z"/>
  <path class="cls-2" d="M914.32,361.83l7.06-8.84c2.86-.54,7.74,4.2,9.37,6.58l-6.53,8.1-9.9-5.84Z"/>
  <rect class="cls-2" x="969.02" y="404.41" width="12.17" height="9.14"/>
  <rect class="cls-2" x="420.36" y="361.86" width="10.65" height="9.14"/>
  <path class="cls-2" d="M549.55,439.38c-1.76,3.28-9.63,3.14-12.92,3.14s-11.15.14-12.92-3.14h25.84Z"/>
  <path d="M544.73,422.9l-.49,7.38c-23.24,11.14-27.27-22.27.49-7.38Z"/>
  <path d="M541.58,383.52c4.36,4.3.93,12.33-6.35,11.73-15.08-1.24-3.37-21.31,6.35-11.73Z"/>
  <polygon points="473.56 393.77 464.45 393.78 467.5 378.59 473.56 393.77"/>
  <path d="M807.93,381.63v22.8c-22.75,2.37-22.75-25.17,0-22.8Z"/>
  <path d="M661.63,402.5c-3.11,2.93-9.51,2.08-13.08.18.07-7.87-3.73-21.7,8.03-21.02,9.54.55,10.55,15.66,5.05,20.84Z"/>
  <path d="M856.55,387.7c-4.27-.2-8.67.32-12.93,0-2.26-.16-4.4,1.18-3.76-2.26,2.51-5.25,16.56-5.5,16.7,2.25Z"/>
  <path d="M707.62,395.31l-1.42,8.45c-18.81,3.77-14.5-10.03,1.42-8.45Z"/>
  <path d="M588.68,402.5c-9.84,9.24-23.1-8.93-14.14-17.92,11.01-11.04,24.07,8.59,14.14,17.92Z"/>
  <rect class="cls-4" x="0" y="265.36" width="1019.31" height="297" rx="148.5" ry="148.5"/>
  <text class="cls-3" transform="translate(343.41 455.13)"><tspan x="0" y="0">¿Algo </tspan><tspan class="cls-1" x="243.17" y="0">P</tspan><tspan class="cls-5" x="287.01" y="0">a</tspan><tspan x="328.23" y="0">’ decir?</tspan></text>
  <path class="cls-2" d="M107.71,481.98s32.55,7.75,49.11-9.69c5.13-5.4,11.98-8.83,19.39-9.59,28.6-2.94,92.22-14.32,92.22-57.29,0-60.49-57.86-61.38-91.29-61.39-57.57,0-93.86,27.84-94.14,56.39-.33,33.43,13.9,42.11,29.53,50.14,6.54,3.36,8.78,11.59,4.63,17.65l-9.44,13.78Z"/>
</svg>